<?xml version="1.0" encoding="UTF-8"?>
<!DOCTYPE svg PUBLIC "-//W3C//DTD SVG 1.1//EN" "http://www.w3.org/Graphics/SVG/1.1/DTD/svg11.dtd">
<svg xmlns="http://www.w3.org/2000/svg" version="1.1" width="100px" height="77px" style="shape-rendering:geometricPrecision; text-rendering:geometricPrecision; image-rendering:optimizeQuality; fill-rule:evenodd; clip-rule:evenodd" xmlns:xlink="http://www.w3.org/1999/xlink">
<g><path style="opacity:0.915" fill="#b898e4" d="M 90.5,14.5 C 90.5,18.5 90.5,22.5 90.5,26.5C 89.8333,26.5 89.1667,26.5 88.5,26.5C 88.8168,22.2984 88.4834,18.2984 87.5,14.5C 85.9641,10.7975 83.2974,8.29753 79.5,7C 60.1667,6.33333 40.8333,6.33333 21.5,7C 18.087,8.07744 15.587,10.2441 14,13.5C 13.5012,17.4862 13.3345,21.4862 13.5,25.5C 13.5,25.8333 13.5,26.1667 13.5,26.5C 10.8333,26.5 8.16667,26.5 5.5,26.5C 6.91866,25.5489 8.58533,25.2155 10.5,25.5C 10.3342,20.8215 10.5008,16.1548 11,11.5C 12.8917,7.94211 15.7251,5.44211 19.5,4C 40.1667,3.33333 60.8333,3.33333 81.5,4C 86.4982,5.8286 89.4982,9.3286 90.5,14.5 Z"/></g>
<g><path style="opacity:1" fill="#181818" d="M 21.5,12.5 C 41.213,12.179 60.8796,12.5123 80.5,13.5C 81.1924,14.0253 81.6924,14.6919 82,15.5C 82.8164,30.2115 82.6497,44.8782 81.5,59.5C 80.9747,60.1924 80.3081,60.6924 79.5,61C 60.1667,61.6667 40.8333,61.6667 21.5,61C 21,60.5 20.5,60 20,59.5C 19.3333,44.5 19.3333,29.5 20,14.5C 20.7172,13.9558 21.2172,13.2891 21.5,12.5 Z"/></g>
<g><path style="opacity:0.135" fill="#e0d9e9" d="M 90.5,14.5 C 91.4816,17.9619 91.815,21.6286 91.5,25.5C 93.099,25.2322 94.4324,25.5655 95.5,26.5C 93.8333,26.5 92.1667,26.5 90.5,26.5C 90.5,22.5 90.5,18.5 90.5,14.5 Z"/></g>
<g><path style="opacity:1" fill="#7a609e" d="M 24.5,18.5 C 41.8333,18.5 59.1667,18.5 76.5,18.5C 76.5,30.8333 76.5,43.1667 76.5,55.5C 59.1667,55.5 41.8333,55.5 24.5,55.5C 24.5,43.1667 24.5,30.8333 24.5,18.5 Z"/></g>
<g><path style="opacity:1" fill="#ad89e0" d="M 25.5,19.5 C 42.1667,19.5 58.8333,19.5 75.5,19.5C 75.5,31.1667 75.5,42.8333 75.5,54.5C 58.8333,54.5 42.1667,54.5 25.5,54.5C 25.5,42.8333 25.5,31.1667 25.5,19.5 Z"/></g>
<g><path style="opacity:1" fill="#0f0f0f" d="M 5.5,26.5 C 8.16667,26.5 10.8333,26.5 13.5,26.5C 15.4633,33.4238 16.1299,40.7572 15.5,48.5C 12.1667,48.5 8.83333,48.5 5.5,48.5C 4.16667,41.1667 4.16667,33.8333 5.5,26.5 Z"/></g>
<g><path style="opacity:0.226" fill="#c1c1c1" d="M 13.5,26.5 C 13.5,26.1667 13.5,25.8333 13.5,25.5C 14.5,25.5 15.5,25.5 16.5,25.5C 16.5,33.5 16.5,41.5 16.5,49.5C 12.6286,49.815 8.96192,49.4816 5.5,48.5C 8.83333,48.5 12.1667,48.5 15.5,48.5C 16.1299,40.7572 15.4633,33.4238 13.5,26.5 Z"/></g>
<g><path style="opacity:0.227" fill="#c8c6ca" d="M 87.5,14.5 C 88.4834,18.2984 88.8168,22.2984 88.5,26.5C 87.5,26.5 86.5,26.5 85.5,26.5C 85.5,33.8333 85.5,41.1667 85.5,48.5C 88.8333,48.5 92.1667,48.5 95.5,48.5C 92.0381,49.4816 88.3714,49.815 84.5,49.5C 84.5,41.5 84.5,33.5 84.5,25.5C 85.5,25.5 86.5,25.5 87.5,25.5C 87.5,21.8333 87.5,18.1667 87.5,14.5 Z"/></g>
<g><path style="opacity:1" fill="#0f0f0f" d="M 88.5,26.5 C 89.1667,26.5 89.8333,26.5 90.5,26.5C 92.1667,26.5 93.8333,26.5 95.5,26.5C 96.8333,33.8333 96.8333,41.1667 95.5,48.5C 92.1667,48.5 88.8333,48.5 85.5,48.5C 85.5,41.1667 85.5,33.8333 85.5,26.5C 86.5,26.5 87.5,26.5 88.5,26.5 Z"/></g>
<g><path style="opacity:1" fill="#403153" d="M 63.5,27.5 C 64.8221,27.33 65.9887,27.6634 67,28.5C 67.6667,32.1667 67.6667,35.8333 67,39.5C 62.3334,41.3427 60.5001,39.676 61.5,34.5C 61.3187,31.8368 61.9854,29.5034 63.5,27.5 Z"/></g>
<g><path style="opacity:1" fill="#3e2f50" d="M 34.5,27.5 C 38.4122,27.6799 40.0789,29.8465 39.5,34C 40.7548,39.4162 38.9214,41.2495 34,39.5C 33.2375,35.4126 33.4042,31.4126 34.5,27.5 Z"/></g>
<g><path style="opacity:1" fill="#433457" d="M 43.5,40.5 C 48.1125,47.0171 52.7792,47.0171 57.5,40.5C 57.8333,41 58.1667,41.5 58.5,42C 55.5984,47.6167 51.2651,48.9501 45.5,46C 44.1387,44.4157 43.472,42.5824 43.5,40.5 Z"/></g>
<g><path style="opacity:0.992" fill="#ba99e6" d="M 18.5,63.5 C 44.4705,63.3505 70.4705,63.6838 96.5,64.5C 96.2562,67.2626 94.9229,69.4293 92.5,71C 64.5,71.6667 36.5,71.6667 8.5,71C 6.07714,69.4293 4.74381,67.2626 4.5,64.5C 9.36329,64.8195 14.03,64.4861 18.5,63.5 Z"/></g>
</svg>
