<?xml version="1.0" encoding="UTF-8"?>
<!DOCTYPE svg PUBLIC "-//W3C//DTD SVG 1.1//EN" "http://www.w3.org/Graphics/SVG/1.1/DTD/svg11.dtd">
<svg xmlns="http://www.w3.org/2000/svg" version="1.1" width="100px" height="79px" style="shape-rendering:geometricPrecision; text-rendering:geometricPrecision; image-rendering:optimizeQuality; fill-rule:evenodd; clip-rule:evenodd" xmlns:xlink="http://www.w3.org/1999/xlink">
<g><path style="opacity:0.859" fill="#c6aaea" d="M 89.5,26.5 C 88.1667,26.5 86.8333,26.5 85.5,26.5C 85.6657,22.1539 85.499,17.8206 85,13.5C 84.2155,11.714 83.0488,10.214 81.5,9C 70.5934,7.85447 59.5934,7.35447 48.5,7.5C 38.1667,7.66667 27.8333,7.83333 17.5,8C 15.0833,9.66261 13.25,11.8293 12,14.5C 11.5012,18.4862 11.3345,22.4862 11.5,26.5C 10.5,26.5 9.5,26.5 8.5,26.5C 8.17949,21.3054 8.51283,16.3054 9.5,11.5C 11.2624,10.7377 12.2624,9.40435 12.5,7.5C 14.0269,7.57298 15.0269,6.90632 15.5,5.5C 16.2625,4.73209 17.2625,4.23209 18.5,4C 38.5,3.33333 58.5,3.33333 78.5,4C 82.8429,5.0095 86.0096,7.5095 88,11.5C 89.3254,16.4012 89.8254,21.4012 89.5,26.5 Z"/></g>
<g><path style="opacity:0.808" fill="#d9c7f1" d="M 15.5,5.5 C 15.0269,6.90632 14.0269,7.57298 12.5,7.5C 12.9731,6.09368 13.9731,5.42702 15.5,5.5 Z"/></g>
<g><path style="opacity:0.89" fill="#decdf2" d="M 12.5,7.5 C 12.2624,9.40435 11.2624,10.7377 9.5,11.5C 9.73758,9.59565 10.7376,8.26231 12.5,7.5 Z"/></g>
<g><path style="opacity:0.328" fill="#dedede" d="M 76.5,13.5 C 57.8333,13.5 39.1667,13.5 20.5,13.5C 39.158,11.1656 57.8246,11.1656 76.5,13.5 Z"/></g>
<g><path style="opacity:0.994" fill="#626264" d="M 20.5,13.5 C 39.1667,13.5 57.8333,13.5 76.5,13.5C 78.0174,13.5106 79.1841,14.1772 80,15.5C 80.6667,30.1667 80.6667,44.8333 80,59.5C 79.5,60 79,60.5 78.5,61C 58.8333,61.6667 39.1667,61.6667 19.5,61C 19,60.5 18.5,60 18,59.5C 17.3333,44.5 17.3333,29.5 18,14.5C 18.6708,13.7476 19.5041,13.4142 20.5,13.5 Z"/></g>
<g><path style="opacity:1" fill="#947bb7" d="M 73.5,55.5 C 73.5,43.5 73.5,31.5 73.5,19.5C 56.8333,19.5 40.1667,19.5 23.5,19.5C 23.5,31.5 23.5,43.5 23.5,55.5C 22.5048,43.3446 22.1714,31.0113 22.5,18.5C 39.8333,18.5 57.1667,18.5 74.5,18.5C 74.8286,31.0113 74.4952,43.3446 73.5,55.5 Z"/></g>
<g><path style="opacity:1" fill="#ad88e0" d="M 73.5,55.5 C 56.8333,55.5 40.1667,55.5 23.5,55.5C 23.5,43.5 23.5,31.5 23.5,19.5C 40.1667,19.5 56.8333,19.5 73.5,19.5C 73.5,31.5 73.5,43.5 73.5,55.5 Z"/></g>
<g><path style="opacity:0.468" fill="#b0b0b1" d="M 3.5,26.5 C 3.5,33.8333 3.5,41.1667 3.5,48.5C 6.83333,48.5 10.1667,48.5 13.5,48.5C 13.5,41.1667 13.5,33.8333 13.5,26.5C 14.492,33.9818 14.8254,41.6484 14.5,49.5C 10.5,49.5 6.5,49.5 2.5,49.5C 2.17464,41.6484 2.50797,33.9818 3.5,26.5 Z"/></g>
<g><path style="opacity:0.996" fill="#5d5e5f" d="M 3.5,26.5 C 5.16667,26.5 6.83333,26.5 8.5,26.5C 9.5,26.5 10.5,26.5 11.5,26.5C 12.1667,26.5 12.8333,26.5 13.5,26.5C 13.5,33.8333 13.5,41.1667 13.5,48.5C 10.1667,48.5 6.83333,48.5 3.5,48.5C 3.5,41.1667 3.5,33.8333 3.5,26.5 Z"/></g>
<g><path style="opacity:0.992" fill="#5c5e5e" d="M 85.5,26.5 C 86.8333,26.5 88.1667,26.5 89.5,26.5C 90.8333,26.5 92.1667,26.5 93.5,26.5C 93.5,33.8333 93.5,41.1667 93.5,48.5C 90.1667,48.5 86.8333,48.5 83.5,48.5C 82.8701,40.7572 83.5367,33.4238 85.5,26.5 Z"/></g>
<g><path style="opacity:0.749" fill="#939394" d="M 93.5,26.5 C 94.492,33.9818 94.8254,41.6484 94.5,49.5C 90.6286,49.815 86.9619,49.4816 83.5,48.5C 86.8333,48.5 90.1667,48.5 93.5,48.5C 93.5,41.1667 93.5,33.8333 93.5,26.5 Z"/></g>
<g><path style="opacity:1" fill="#3c2e4e" d="M 33.5,27.5 C 36.9404,28.4486 38.2738,30.7819 37.5,34.5C 38.4999,39.676 36.6666,41.3427 32,39.5C 30.994,35.1985 31.494,31.1985 33.5,27.5 Z"/></g>
<g><path style="opacity:1" fill="#3e2f50" d="M 61.5,27.5 C 62.8221,27.33 63.9887,27.6634 65,28.5C 65.4988,32.4862 65.6655,36.4862 65.5,40.5C 63.8333,40.5 62.1667,40.5 60.5,40.5C 60.2307,36.0685 60.564,31.7352 61.5,27.5 Z"/></g>
<g><path style="opacity:1" fill="#49385e" d="M 41.5,40.5 C 43.3838,41.3816 44.7171,42.8816 45.5,45C 50.1898,46.9257 53.5232,45.4257 55.5,40.5C 56.2902,45.237 54.1235,47.9037 49,48.5C 44.2552,47.9222 41.7552,45.2556 41.5,40.5 Z"/></g>
<g><path style="opacity:0.804" fill="#cdb6ed" d="M 93.5,67.5 C 78.8485,66.1673 63.8485,65.5006 48.5,65.5C 33.3296,65.5001 18.3296,65.8334 3.5,66.5C 2.95691,66.44 2.62358,66.1067 2.5,65.5C 16.9929,64.6716 31.4929,64.005 46,63.5C 62.2229,64.4838 78.3895,64.8171 94.5,64.5C 94.7373,65.791 94.404,66.791 93.5,67.5 Z"/></g>
<g><path style="opacity:0.98" fill="#b08be2" d="M 93.5,67.5 C 93.4257,69.4109 92.4257,70.5776 90.5,71C 62.5,71.6667 34.5,71.6667 6.5,71C 4.13673,70.4115 3.13673,68.9115 3.5,66.5C 18.3296,65.8334 33.3296,65.5001 48.5,65.5C 63.8485,65.5006 78.8485,66.1673 93.5,67.5 Z"/></g>
</svg>
